<?xml version="1.0" encoding="UTF-8" standalone="no"?>
<!-- Created with Inkscape (http://www.inkscape.org/) -->

<svg
   xmlns:dc="http://purl.org/dc/elements/1.1/"
   xmlns:cc="http://creativecommons.org/ns#"
   xmlns:rdf="http://www.w3.org/1999/02/22-rdf-syntax-ns#"
   xmlns:svg="http://www.w3.org/2000/svg"
   xmlns="http://www.w3.org/2000/svg"
   xmlns:sodipodi="http://sodipodi.sourceforge.net/DTD/sodipodi-0.dtd"
   xmlns:inkscape="http://www.inkscape.org/namespaces/inkscape"
   version="1.1"
   width="354.33069"
   height="354.33069"
   id="svg2"
   inkscape:version="0.48.4 r9939"
   sodipodi:docname="drawing.svg">
  <sodipodi:namedview
     pagecolor="#ffffff"
     bordercolor="#666666"
     borderopacity="1"
     objecttolerance="10"
     gridtolerance="10"
     guidetolerance="10"
     inkscape:pageopacity="0"
     inkscape:pageshadow="2"
     inkscape:window-width="750"
     inkscape:window-height="480"
     id="namedview2990"
     showgrid="false"
     units="mm"
     inkscape:document-units="mm"
     inkscape:zoom="0.66604448"
     inkscape:cx="439.15986"
     inkscape:cy="177.16534"
     inkscape:window-x="72"
     inkscape:window-y="24"
     inkscape:window-maximized="0"
     inkscape:current-layer="svg2" />
  <defs
     id="defs4" />
  <metadata
     id="metadata7">
    <rdf:RDF>
      <cc:Work
         rdf:about="">
        <dc:format>image/svg+xml</dc:format>
        <dc:type
           rdf:resource="http://purl.org/dc/dcmitype/StillImage" />
        <dc:title></dc:title>
      </cc:Work>
    </rdf:RDF>
  </metadata>
  <g
     transform="translate(0,-698.03074)"
     id="layer1">
    <path
       d="m 171.42857,1037.3609 c -15.21275,1.8326 -24.6637,-13.4524 -37.82855,-18.3686 -11.95018,-8.9915 -23.90901,-16.5247 -33.808155,-27.86655 C 85.657016,982.06676 78.836674,964.8916 63.179882,958.33827 53.393647,948.19102 48.75196,934.15247 40.629719,922.84069 28.908666,913.02515 25.878376,898.54533 21.267667,884.77144 17.613077,870.88686 7.1419207,858.42798 10.350507,843.38152 c 1.513494,-14.46337 6.387679,-27.90596 11.477312,-41.29993 3.716926,-12.69238 14.614162,-21.54425 22.418287,-31.87827 11.783877,-11.39579 30.183143,-7.271 45.17315,-8.58097 13.582334,0.13676 27.767454,0.51127 40.574754,5.40205 8.25682,13.85323 25.54954,22.4649 31.43456,38.1936 4.04457,6.97157 6.34709,28.71109 5.78094,9.43973 0.4267,-13.31785 9.14504,-23.28954 12.33517,-35.92538 5.7139,-14.2351 19.94142,-21.19936 34.14282,-24.25102 20.06887,-4.60714 40.87756,-3.26858 61.3125,-3.54904 16.69256,4.91004 28.88191,18.78593 38.55983,32.41819 4.3841,15.42647 20.91386,23.89754 19.232,41.41035 2.32838,15.79553 -2.17337,27.04394 -0.56368,43.77959 -1.2369,15.34292 -1.79616,31.46418 -8.16065,45.71254 -0.55549,19.65803 -23.4686,24.86689 -30.15921,40.43249 -8.41414,13.53976 -22.66267,22.67123 -28.2046,38.27904 -8.57536,13.09671 -18.3298,26.46171 -32.13227,34.39641 -15.13383,6.1737 -31.15809,12.9753 -46.42857,16.4285"
       id="path2987"
       style="fill:none;stroke:#000000;stroke-width:1px;stroke-linecap:butt;stroke-linejoin:miter;stroke-opacity:1"
       inkscape:connector-curvature="0" />
  </g>
</svg>
